<svg width="13" height="14" viewBox="0 0 13 14" fill="none" xmlns="http://www.w3.org/2000/svg">
<path d="M10.4968 5.02972H1.74947C0.783264 5.02972 0 5.81299 0 6.77919V12.0276C0 12.9938 0.783264 13.7771 1.74947 13.7771H10.4968C11.463 13.7771 12.2463 12.9938 12.2463 12.0276V6.77919C12.2463 5.81299 11.463 5.02972 10.4968 5.02972Z" fill="#EC2D30"/>
<path fill-rule="evenodd" clip-rule="evenodd" d="M3.9363 1.3121C3.8783 1.3121 3.82268 1.33514 3.78167 1.37615C3.74066 1.41716 3.71762 1.47279 3.71762 1.53079V5.90446H2.40552V1.53079C2.40552 0.685792 3.09131 0 3.9363 0H8.30998C9.15497 0 9.84076 0.685792 9.84076 1.53079V5.90446H8.52866V1.53079C8.52866 1.47279 8.50562 1.41716 8.46461 1.37615C8.4236 1.33514 8.36797 1.3121 8.30998 1.3121H3.9363Z" fill="#EC2D30"/>
</svg>
